<?xml version="1.0" ?><svg id="Layer_1" style="enable-background:new 0 0 500 500;" version="1.1" viewBox="0 0 500 500" xml:space="preserve" xmlns="http://www.w3.org/2000/svg" xmlns:xlink="http://www.w3.org/1999/xlink"><style type="text/css">
	.st0{fill:url(#SVGID_1_);}
	.st1{fill:url(#SVGID_2_);}
	.st2{fill:url(#SVGID_3_);}
	.st3{fill:url(#SVGID_4_);}
	.st4{fill:url(#SVGID_5_);}
	.st5{fill:url(#SVGID_6_);}
	.st6{fill:url(#SVGID_7_);}
	.st7{fill:url(#SVGID_8_);}
	.st8{fill:url(#SVGID_9_);}
	.st9{fill:url(#SVGID_10_);}
	.st10{fill:url(#SVGID_11_);}
	.st11{fill:url(#SVGID_12_);}
	.st12{fill:url(#SVGID_13_);}
	.st13{fill:url(#SVGID_14_);}
	.st14{fill:url(#SVGID_15_);}
	.st15{fill:url(#SVGID_16_);}
	.st16{fill:url(#SVGID_17_);}
	.st17{fill:url(#SVGID_18_);}
	.st18{fill:url(#SVGID_19_);}
	.st19{fill:url(#SVGID_20_);}
	.st20{fill:url(#SVGID_21_);}
	.st21{fill:url(#SVGID_22_);}
	.st22{fill:url(#SVGID_23_);}
	.st23{fill:url(#SVGID_24_);}
	.st24{fill:url(#SVGID_25_);}
	.st25{fill:url(#SVGID_26_);}
	.st26{fill:url(#SVGID_27_);}
	.st27{fill:url(#SVGID_28_);}
	.st28{fill:url(#SVGID_29_);}
	.st29{fill:url(#SVGID_30_);}
	.st30{fill:url(#SVGID_31_);}
	.st31{fill:url(#SVGID_32_);}
	.st32{fill:url(#SVGID_33_);}
	.st33{fill:url(#SVGID_34_);}
	.st34{fill:url(#SVGID_35_);}
	.st35{fill:url(#SVGID_36_);}
	.st36{fill:url(#SVGID_37_);}
	.st37{fill:url(#SVGID_38_);}
	.st38{fill:url(#SVGID_39_);}
	.st39{fill:url(#SVGID_40_);}
	.st40{fill:url(#SVGID_41_);}
	.st41{fill:url(#SVGID_42_);}
	.st42{fill:url(#SVGID_43_);}
	.st43{fill:url(#SVGID_44_);}
	.st44{fill:url(#SVGID_45_);}
	.st45{fill:url(#SVGID_46_);}
	.st46{fill:url(#SVGID_47_);}
	.st47{fill:url(#SVGID_48_);}
	.st48{fill:url(#SVGID_49_);}
	.st49{fill:url(#SVGID_50_);}
	.st50{fill:url(#SVGID_51_);}
	.st51{fill:url(#SVGID_52_);}
	.st52{fill:url(#SVGID_53_);}
	.st53{fill:url(#SVGID_54_);}
	.st54{fill:url(#SVGID_55_);}
	.st55{fill:url(#SVGID_56_);}
	.st56{fill:url(#SVGID_57_);}
	.st57{fill:url(#SVGID_58_);}
	.st58{fill:url(#SVGID_59_);}
	.st59{fill:url(#SVGID_60_);}
	.st60{fill:url(#SVGID_61_);}
	.st61{fill:url(#SVGID_62_);}
	.st62{fill:url(#SVGID_63_);}
	.st63{fill:url(#SVGID_64_);}
	.st64{fill:url(#SVGID_65_);}
	.st65{fill:url(#SVGID_66_);}
	.st66{fill:url(#SVGID_67_);}
	.st67{fill:url(#SVGID_68_);}
</style><g><g><linearGradient gradientUnits="userSpaceOnUse" id="SVGID_1_" x1="41.2623" x2="185.2063" y1="199.2198" y2="199.2198"><stop offset="0" style="stop-color:#00FFFF"/><stop offset="1" style="stop-color:#2E3192"/></linearGradient><path class="st0" d="M68.86,213.58c-13.16-4.04-16.03-8.46-16.03-9.82c0-1.36,2.88-5.78,16.03-9.82    c11.8-3.63,27.56-5.63,44.37-5.63s32.57,2,44.37,5.63c13.16,4.04,16.03,8.46,16.03,9.82c0,1.36-2.88,5.78-16.03,9.82    c-3.81,1.17-8.04,2.17-12.58,2.99c-0.49,0.33-1.19,0.65-2.06,0.96c24.91-3.03,42.24-9.74,42.24-17.55    c0-10.64-32.22-19.27-71.97-19.27s-71.97,8.63-71.97,19.27c0,7.99,18.15,14.84,44,17.76c-0.9-0.28-1.65-0.57-2.22-0.88    C77.89,215.98,73.12,214.88,68.86,213.58z"/><linearGradient gradientUnits="userSpaceOnUse" id="SVGID_2_" x1="90.9437" x2="409.0562" y1="226.4838" y2="226.4838"><stop offset="0" style="stop-color:#00FFFF"/><stop offset="1" style="stop-color:#2E3192"/></linearGradient><path class="st1" d="M409.06,204.51c-1.87,1.48-4.68,2.47-8.69,2.83v34.76c-3.97,10.64-25.38,9.74-29.09,0h-48.36    c-8.76,1.82-16.84,5.16-24.46,9.57c-8.58-18.48-27.31-31.29-49.03-31.29c-21.52,0-40.1,12.58-48.79,30.78    c-7.35-4.16-15.15-7.31-23.56-9.06h-48.36c-3.71,9.74-25.12,10.64-29.09,0v-34.76c-4-0.37-6.82-1.36-8.69-2.83    c13.51-4.21,28.93-4.35,46.47,0c-2.04,1.96-4.58,3.06-7.56,3.4v15.3h37.02c29.93-10.47,58.66-18.7,82.93-18.7v0h0.38v0    c24.27,0,52.99,8.22,82.93,18.7h37.02v-15.3c-2.98-0.34-5.52-1.44-7.56-3.4C380.12,200.16,395.55,200.3,409.06,204.51z"/><linearGradient gradientUnits="userSpaceOnUse" id="SVGID_3_" x1="314.7937" x2="458.7377" y1="199.2198" y2="199.2198"><stop offset="0" style="stop-color:#00FFFF"/><stop offset="1" style="stop-color:#2E3192"/></linearGradient><path class="st2" d="M386.77,180.71c-39.75,0-71.97,8.63-71.97,19.27c0,7.81,17.33,14.52,42.24,17.55    c-0.87-0.3-1.56-0.62-2.06-0.96c-4.54-0.82-8.77-1.82-12.58-2.99c-13.16-4.04-16.03-8.46-16.03-9.82c0-1.36,2.88-5.78,16.03-9.82    c11.8-3.63,27.56-5.63,44.37-5.63c16.81,0,32.57,2,44.37,5.63c13.16,4.04,16.03,8.46,16.03,9.82c0,1.36-2.88,5.78-16.03,9.82    c-4.26,1.31-9.03,2.4-14.18,3.27c-0.57,0.31-1.32,0.6-2.22,0.88c25.86-2.92,44-9.77,44-17.76    C458.74,189.33,426.51,180.71,386.77,180.71z"/></g><g><linearGradient gradientUnits="userSpaceOnUse" id="SVGID_4_" x1="252.5726" x2="252.7003" y1="317.2084" y2="317.2084"><stop offset="0" style="stop-color:#0071BC"/><stop offset="0.0467" style="stop-color:#0477C0"/><stop offset="0.3164" style="stop-color:#1893D2"/><stop offset="0.4727" style="stop-color:#1F9DD9"/><stop offset="0.6039" style="stop-color:#19B1E1"/><stop offset="0.8709" style="stop-color:#09E4F5"/><stop offset="1" style="stop-color:#00FFFF"/></linearGradient><path class="st3" d="M252.7,317.2c-0.01,0-0.02,0-0.02,0c-0.03,0-0.07,0.01-0.11,0.01c0.03,0,0.07-0.01,0.1-0.01    C252.69,317.2,252.69,317.2,252.7,317.2z"/><linearGradient gradientUnits="userSpaceOnUse" id="SVGID_5_" x1="263.3651" x2="263.5399" y1="314.8775" y2="314.8775"><stop offset="0" style="stop-color:#0071BC"/><stop offset="0.0467" style="stop-color:#0477C0"/><stop offset="0.3164" style="stop-color:#1893D2"/><stop offset="0.4727" style="stop-color:#1F9DD9"/><stop offset="0.6039" style="stop-color:#19B1E1"/><stop offset="0.8709" style="stop-color:#09E4F5"/><stop offset="1" style="stop-color:#00FFFF"/></linearGradient><path class="st4" d="M263.54,314.85c-0.04,0.01-0.07,0.03-0.11,0.04c-0.02,0.01-0.04,0.02-0.06,0.02    c0.02-0.01,0.04-0.02,0.06-0.02C263.47,314.87,263.5,314.86,263.54,314.85z"/><linearGradient gradientUnits="userSpaceOnUse" id="SVGID_6_" x1="263.8381" x2="263.877" y1="230.5493" y2="230.5493"><stop offset="0" style="stop-color:#0071BC"/><stop offset="0.0467" style="stop-color:#0477C0"/><stop offset="0.3164" style="stop-color:#1893D2"/><stop offset="0.4727" style="stop-color:#1F9DD9"/><stop offset="0.6039" style="stop-color:#19B1E1"/><stop offset="0.8709" style="stop-color:#09E4F5"/><stop offset="1" style="stop-color:#00FFFF"/></linearGradient><path class="st5" d="M263.86,230.55c0,0-0.01-0.01-0.01-0.01c0,0,0,0-0.01,0c0.01,0.01,0.03,0.02,0.04,0.03    C263.87,230.56,263.86,230.55,263.86,230.55z"/><linearGradient gradientUnits="userSpaceOnUse" id="SVGID_7_" x1="265.7629" x2="266.3704" y1="313.8672" y2="313.8672"><stop offset="0" style="stop-color:#0071BC"/><stop offset="0.0467" style="stop-color:#0477C0"/><stop offset="0.3164" style="stop-color:#1893D2"/><stop offset="0.4727" style="stop-color:#1F9DD9"/><stop offset="0.6039" style="stop-color:#19B1E1"/><stop offset="0.8709" style="stop-color:#09E4F5"/><stop offset="1" style="stop-color:#00FFFF"/></linearGradient><path class="st6" d="M266.37,313.74c-0.19,0.08-0.38,0.16-0.56,0.24c-0.01,0.01-0.03,0.01-0.04,0.02    c0.01-0.01,0.03-0.01,0.04-0.02C265.99,313.9,266.18,313.82,266.37,313.74z"/><linearGradient gradientUnits="userSpaceOnUse" id="SVGID_8_" x1="262.7453" x2="263.242" y1="315.0353" y2="315.0353"><stop offset="0" style="stop-color:#0071BC"/><stop offset="0.0467" style="stop-color:#0477C0"/><stop offset="0.3164" style="stop-color:#1893D2"/><stop offset="0.4727" style="stop-color:#1F9DD9"/><stop offset="0.6039" style="stop-color:#19B1E1"/><stop offset="0.8709" style="stop-color:#09E4F5"/><stop offset="1" style="stop-color:#00FFFF"/></linearGradient><path class="st7" d="M262.75,315.12c0.17-0.05,0.33-0.11,0.5-0.17C263.08,315.01,262.91,315.06,262.75,315.12z"/><linearGradient gradientUnits="userSpaceOnUse" id="SVGID_9_" x1="250.153" x2="251.0132" y1="317.3403" y2="317.3403"><stop offset="0" style="stop-color:#0071BC"/><stop offset="0.0467" style="stop-color:#0477C0"/><stop offset="0.3164" style="stop-color:#1893D2"/><stop offset="0.4727" style="stop-color:#1F9DD9"/><stop offset="0.6039" style="stop-color:#19B1E1"/><stop offset="0.8709" style="stop-color:#09E4F5"/><stop offset="1" style="stop-color:#00FFFF"/></linearGradient><path class="st8" d="M250.44,317.35c0.18-0.01,0.35-0.01,0.53-0.02c0.01,0,0.03,0,0.04,0c-0.01,0-0.03,0-0.04,0    C250.79,317.33,250.62,317.34,250.44,317.35c-0.03,0-0.05,0-0.08,0c-0.07,0-0.14,0-0.21,0.01c0.07,0,0.14,0,0.21-0.01    C250.39,317.35,250.41,317.35,250.44,317.35z"/><linearGradient gradientUnits="userSpaceOnUse" id="SVGID_10_" x1="263.787" x2="263.8308" y1="230.5146" y2="230.5146"><stop offset="0" style="stop-color:#0071BC"/><stop offset="0.0467" style="stop-color:#0477C0"/><stop offset="0.3164" style="stop-color:#1893D2"/><stop offset="0.4727" style="stop-color:#1F9DD9"/><stop offset="0.6039" style="stop-color:#19B1E1"/><stop offset="0.8709" style="stop-color:#09E4F5"/><stop offset="1" style="stop-color:#00FFFF"/></linearGradient><path class="st9" d="M263.83,230.53c-0.01,0-0.01-0.01-0.02-0.01c-0.01,0-0.02-0.01-0.02-0.01    C263.8,230.51,263.82,230.52,263.83,230.53C263.83,230.53,263.83,230.53,263.83,230.53z"/><linearGradient gradientUnits="userSpaceOnUse" id="SVGID_11_" x1="255.3867" x2="255.5346" y1="316.8691" y2="316.8691"><stop offset="0" style="stop-color:#0071BC"/><stop offset="0.0467" style="stop-color:#0477C0"/><stop offset="0.3164" style="stop-color:#1893D2"/><stop offset="0.4727" style="stop-color:#1F9DD9"/><stop offset="0.6039" style="stop-color:#19B1E1"/><stop offset="0.8709" style="stop-color:#09E4F5"/><stop offset="1" style="stop-color:#00FFFF"/></linearGradient><path class="st10" d="M255.52,316.86c0.01,0,0.01,0,0.02,0c-0.02,0-0.04,0.01-0.06,0.01c-0.03,0-0.06,0.01-0.09,0.01    c0.03,0,0.06-0.01,0.09-0.01C255.49,316.86,255.5,316.86,255.52,316.86z"/><linearGradient gradientUnits="userSpaceOnUse" id="SVGID_12_" x1="249.6321" x2="249.8199" y1="317.3704" y2="317.3704"><stop offset="0" style="stop-color:#0071BC"/><stop offset="0.0467" style="stop-color:#0477C0"/><stop offset="0.3164" style="stop-color:#1893D2"/><stop offset="0.4727" style="stop-color:#1F9DD9"/><stop offset="0.6039" style="stop-color:#19B1E1"/><stop offset="0.8709" style="stop-color:#09E4F5"/><stop offset="1" style="stop-color:#00FFFF"/></linearGradient><path class="st11" d="M249.82,317.37c-0.01,0-0.03,0-0.04,0c-0.05,0-0.1,0-0.14,0c0.05,0,0.1,0,0.14,0    C249.79,317.37,249.81,317.37,249.82,317.37z"/><linearGradient gradientUnits="userSpaceOnUse" id="SVGID_13_" x1="251.4058" x2="251.5775" y1="317.2946" y2="317.2946"><stop offset="0" style="stop-color:#0071BC"/><stop offset="0.0467" style="stop-color:#0477C0"/><stop offset="0.3164" style="stop-color:#1893D2"/><stop offset="0.4727" style="stop-color:#1F9DD9"/><stop offset="0.6039" style="stop-color:#19B1E1"/><stop offset="0.8709" style="stop-color:#09E4F5"/><stop offset="1" style="stop-color:#00FFFF"/></linearGradient><path class="st12" d="M251.58,317.29c-0.02,0-0.04,0-0.06,0c-0.04,0-0.08,0-0.11,0.01c0.04,0,0.08,0,0.11-0.01    C251.54,317.29,251.56,317.29,251.58,317.29z"/><linearGradient gradientUnits="userSpaceOnUse" id="SVGID_14_" x1="251.6335" x2="252.0903" y1="317.2696" y2="317.2696"><stop offset="0" style="stop-color:#0071BC"/><stop offset="0.0467" style="stop-color:#0477C0"/><stop offset="0.3164" style="stop-color:#1893D2"/><stop offset="0.4727" style="stop-color:#1F9DD9"/><stop offset="0.6039" style="stop-color:#19B1E1"/><stop offset="0.8709" style="stop-color:#09E4F5"/><stop offset="1" style="stop-color:#00FFFF"/></linearGradient><path class="st13" d="M251.63,317.29c0.15-0.01,0.3-0.02,0.46-0.03C251.94,317.26,251.79,317.28,251.63,317.29z"/><linearGradient gradientUnits="userSpaceOnUse" id="SVGID_15_" x1="216.5608" x2="237.937" y1="252.4787" y2="252.4787"><stop offset="0" style="stop-color:#0071BC"/><stop offset="0.0467" style="stop-color:#0477C0"/><stop offset="0.3164" style="stop-color:#1893D2"/><stop offset="0.4727" style="stop-color:#1F9DD9"/><stop offset="0.6039" style="stop-color:#19B1E1"/><stop offset="0.8709" style="stop-color:#09E4F5"/><stop offset="1" style="stop-color:#00FFFF"/></linearGradient><path class="st14" d="M216.97,242.13c-0.16-0.16-0.29-0.25-0.41-0.28l21.38,21.27C230.94,256.12,223.95,249.13,216.97,242.13z"/><linearGradient gradientUnits="userSpaceOnUse" id="SVGID_16_" x1="248.8479" x2="255.3107" y1="317.1378" y2="317.1378"><stop offset="0" style="stop-color:#0071BC"/><stop offset="0.0467" style="stop-color:#0477C0"/><stop offset="0.3164" style="stop-color:#1893D2"/><stop offset="0.4727" style="stop-color:#1F9DD9"/><stop offset="0.6039" style="stop-color:#19B1E1"/><stop offset="0.8709" style="stop-color:#09E4F5"/><stop offset="1" style="stop-color:#00FFFF"/></linearGradient><path class="st15" d="M255.31,316.89c-0.35,0.05-0.71,0.1-1.06,0.15c-1.79,0.24-3.6,0.35-5.4,0.34c0.05,0,0.1,0,0.16,0    c0.07,0,0.14,0,0.2,0c0.01,0,0.03,0,0.04,0c0.13,0,0.25,0,0.38-0.01c0.05,0,0.1,0,0.14,0c0.01,0,0.03,0,0.04,0    c0.03,0,0.06,0,0.09,0c0.08,0,0.17-0.01,0.25-0.01c0.07,0,0.14,0,0.21-0.01c0.03,0,0.05,0,0.08,0c0.18-0.01,0.35-0.01,0.53-0.02    c0.01,0,0.03,0,0.04,0c0.02,0,0.03,0,0.05,0c0.11-0.01,0.23-0.01,0.34-0.02c0.04,0,0.08,0,0.11-0.01c0.02,0,0.04,0,0.06,0    c0.01,0,0.03,0,0.04,0c0,0,0.01,0,0.02,0c0.15-0.01,0.3-0.02,0.46-0.03c0.02,0,0.04,0,0.06,0c0.02,0,0.03,0,0.05,0    c0.13-0.01,0.25-0.02,0.38-0.03c0.03,0,0.07-0.01,0.1-0.01c0.01,0,0.02,0,0.02,0c0.03,0,0.06-0.01,0.09-0.01    c0.35-0.03,0.69-0.07,1.04-0.11c0.02,0,0.05,0,0.07-0.01c0.02,0,0.04,0,0.06-0.01c0.14-0.02,0.29-0.03,0.43-0.05    c0.03,0,0.06-0.01,0.09-0.01c0.17-0.02,0.33-0.04,0.5-0.07c0.05-0.01,0.09-0.01,0.14-0.02    C255.18,316.91,255.25,316.9,255.31,316.89z"/><linearGradient gradientUnits="userSpaceOnUse" id="SVGID_17_" x1="252.7003" x2="253.9003" y1="317.1411" y2="317.1411"><stop offset="0" style="stop-color:#0071BC"/><stop offset="0.0467" style="stop-color:#0477C0"/><stop offset="0.3164" style="stop-color:#1893D2"/><stop offset="0.4727" style="stop-color:#1F9DD9"/><stop offset="0.6039" style="stop-color:#19B1E1"/><stop offset="0.8709" style="stop-color:#09E4F5"/><stop offset="1" style="stop-color:#00FFFF"/></linearGradient><path class="st16" d="M253.83,317.09c0.02,0,0.05-0.01,0.07-0.01C253.88,317.08,253.85,317.08,253.83,317.09    c-0.35,0.04-0.69,0.08-1.04,0.11c-0.03,0-0.06,0.01-0.09,0.01c0.03,0,0.06-0.01,0.09-0.01    C253.14,317.16,253.49,317.13,253.83,317.09z"/><linearGradient gradientUnits="userSpaceOnUse" id="SVGID_18_" x1="249.8199" x2="250.153" y1="317.3633" y2="317.3633"><stop offset="0" style="stop-color:#0071BC"/><stop offset="0.0467" style="stop-color:#0477C0"/><stop offset="0.3164" style="stop-color:#1893D2"/><stop offset="0.4727" style="stop-color:#1F9DD9"/><stop offset="0.6039" style="stop-color:#19B1E1"/><stop offset="0.8709" style="stop-color:#09E4F5"/><stop offset="1" style="stop-color:#00FFFF"/></linearGradient><path class="st17" d="M250.15,317.36c-0.08,0-0.17,0.01-0.25,0.01c-0.03,0-0.06,0-0.09,0c0.03,0,0.06,0,0.09,0    C249.99,317.36,250.07,317.36,250.15,317.36z"/><linearGradient gradientUnits="userSpaceOnUse" id="SVGID_19_" x1="251.5775" x2="251.6335" y1="317.2877" y2="317.2877"><stop offset="0" style="stop-color:#0071BC"/><stop offset="0.0467" style="stop-color:#0477C0"/><stop offset="0.3164" style="stop-color:#1893D2"/><stop offset="0.4727" style="stop-color:#1F9DD9"/><stop offset="0.6039" style="stop-color:#19B1E1"/><stop offset="0.8709" style="stop-color:#09E4F5"/><stop offset="1" style="stop-color:#00FFFF"/></linearGradient><path class="st18" d="M251.63,317.29c-0.01,0-0.01,0-0.02,0c-0.01,0-0.03,0-0.04,0c0.01,0,0.03,0,0.04,0    C251.62,317.29,251.63,317.29,251.63,317.29z"/><linearGradient gradientUnits="userSpaceOnUse" id="SVGID_20_" x1="251.0132" x2="251.4058" y1="317.311" y2="317.311"><stop offset="0" style="stop-color:#0071BC"/><stop offset="0.0467" style="stop-color:#0477C0"/><stop offset="0.3164" style="stop-color:#1893D2"/><stop offset="0.4727" style="stop-color:#1F9DD9"/><stop offset="0.6039" style="stop-color:#19B1E1"/><stop offset="0.8709" style="stop-color:#09E4F5"/><stop offset="1" style="stop-color:#00FFFF"/></linearGradient><path class="st19" d="M251.41,317.3c-0.11,0.01-0.23,0.01-0.34,0.02c-0.02,0-0.03,0-0.05,0c0.02,0,0.03,0,0.05,0    C251.18,317.31,251.29,317.31,251.41,317.3z"/><linearGradient gradientUnits="userSpaceOnUse" id="SVGID_21_" x1="265.0431" x2="265.7629" y1="314.1407" y2="314.1407"><stop offset="0" style="stop-color:#0071BC"/><stop offset="0.0467" style="stop-color:#0477C0"/><stop offset="0.3164" style="stop-color:#1893D2"/><stop offset="0.4727" style="stop-color:#1F9DD9"/><stop offset="0.6039" style="stop-color:#19B1E1"/><stop offset="0.8709" style="stop-color:#09E4F5"/><stop offset="1" style="stop-color:#00FFFF"/></linearGradient><path class="st20" d="M265.62,314.05c0.05-0.02,0.09-0.04,0.14-0.06C265.72,314.01,265.67,314.03,265.62,314.05    c-0.13,0.05-0.26,0.11-0.39,0.16c-0.06,0.03-0.13,0.05-0.19,0.08c0.06-0.03,0.13-0.05,0.19-0.08    C265.37,314.16,265.5,314.11,265.62,314.05z"/><linearGradient gradientUnits="userSpaceOnUse" id="SVGID_22_" x1="261.7374" x2="266.3867" y1="314.5897" y2="314.5897"><stop offset="0" style="stop-color:#0071BC"/><stop offset="0.0467" style="stop-color:#0477C0"/><stop offset="0.3164" style="stop-color:#1893D2"/><stop offset="0.4727" style="stop-color:#1F9DD9"/><stop offset="0.6039" style="stop-color:#19B1E1"/><stop offset="0.8709" style="stop-color:#09E4F5"/><stop offset="1" style="stop-color:#00FFFF"/></linearGradient><path class="st21" d="M266.39,313.75c-1.51,0.65-3.06,1.21-4.65,1.69c0.01,0,0.03-0.01,0.04-0.01c0.03-0.01,0.06-0.02,0.08-0.03    c0.08-0.03,0.17-0.05,0.25-0.08c0.12-0.04,0.25-0.08,0.37-0.12c0.02-0.01,0.05-0.02,0.07-0.02c0.05-0.02,0.09-0.03,0.14-0.05    c0.01,0,0.03-0.01,0.04-0.01c0.17-0.05,0.33-0.11,0.5-0.17c0.01,0,0.02-0.01,0.03-0.01c0.03-0.01,0.06-0.02,0.1-0.03    c0.02-0.01,0.04-0.02,0.06-0.02c0.04-0.01,0.07-0.03,0.11-0.04c0.1-0.04,0.21-0.07,0.31-0.11c0.05-0.02,0.11-0.04,0.16-0.06    c0.02-0.01,0.04-0.01,0.06-0.02c0.12-0.04,0.24-0.09,0.36-0.14c0.08-0.03,0.15-0.06,0.23-0.09c0.12-0.05,0.24-0.09,0.36-0.14    c0.01,0,0.02-0.01,0.02-0.01c0.06-0.03,0.13-0.05,0.19-0.08c0.13-0.05,0.26-0.1,0.39-0.16c0.05-0.02,0.09-0.04,0.14-0.06    c0.01-0.01,0.03-0.01,0.04-0.02c0.19-0.08,0.38-0.16,0.56-0.24L266.39,313.75z"/><linearGradient gradientUnits="userSpaceOnUse" id="SVGID_23_" x1="262.5608" x2="262.7453" y1="315.1494" y2="315.1494"><stop offset="0" style="stop-color:#0071BC"/><stop offset="0.0467" style="stop-color:#0477C0"/><stop offset="0.3164" style="stop-color:#1893D2"/><stop offset="0.4727" style="stop-color:#1F9DD9"/><stop offset="0.6039" style="stop-color:#19B1E1"/><stop offset="0.8709" style="stop-color:#09E4F5"/><stop offset="1" style="stop-color:#00FFFF"/></linearGradient><path class="st22" d="M262.75,315.12c-0.01,0-0.03,0.01-0.04,0.01c-0.05,0.02-0.09,0.03-0.14,0.05c0.05-0.02,0.09-0.03,0.14-0.05    C262.72,315.13,262.73,315.12,262.75,315.12z"/><linearGradient gradientUnits="userSpaceOnUse" id="SVGID_24_" x1="263.5399" x2="264.0141" y1="314.7616" y2="314.7616"><stop offset="0" style="stop-color:#0071BC"/><stop offset="0.0467" style="stop-color:#0477C0"/><stop offset="0.3164" style="stop-color:#1893D2"/><stop offset="0.4727" style="stop-color:#1F9DD9"/><stop offset="0.6039" style="stop-color:#19B1E1"/><stop offset="0.8709" style="stop-color:#09E4F5"/><stop offset="1" style="stop-color:#00FFFF"/></linearGradient><path class="st23" d="M264.01,314.68c-0.05,0.02-0.11,0.04-0.16,0.06c-0.1,0.04-0.21,0.07-0.31,0.11c0.1-0.04,0.21-0.07,0.31-0.11    C263.91,314.72,263.96,314.7,264.01,314.68z"/><linearGradient gradientUnits="userSpaceOnUse" id="SVGID_25_" x1="263.242" x2="263.3651" y1="314.9299" y2="314.9299"><stop offset="0" style="stop-color:#0071BC"/><stop offset="0.0467" style="stop-color:#0477C0"/><stop offset="0.3164" style="stop-color:#1893D2"/><stop offset="0.4727" style="stop-color:#1F9DD9"/><stop offset="0.6039" style="stop-color:#19B1E1"/><stop offset="0.8709" style="stop-color:#09E4F5"/><stop offset="1" style="stop-color:#00FFFF"/></linearGradient><path class="st24" d="M263.37,314.91c-0.03,0.01-0.06,0.02-0.1,0.03c-0.01,0-0.02,0.01-0.03,0.01c0.01,0,0.02-0.01,0.03-0.01    C263.3,314.93,263.33,314.92,263.37,314.91z"/><linearGradient gradientUnits="userSpaceOnUse" id="SVGID_26_" x1="261.522" x2="261.6501" y1="315.4858" y2="315.4858"><stop offset="0" style="stop-color:#0071BC"/><stop offset="0.0467" style="stop-color:#0477C0"/><stop offset="0.3164" style="stop-color:#1893D2"/><stop offset="0.4727" style="stop-color:#1F9DD9"/><stop offset="0.6039" style="stop-color:#19B1E1"/><stop offset="0.8709" style="stop-color:#09E4F5"/><stop offset="1" style="stop-color:#00FFFF"/></linearGradient><path class="st25" d="M261.65,315.47c-0.01,0-0.02,0.01-0.03,0.01c0,0-0.01,0-0.01,0c-0.03,0.01-0.05,0.02-0.08,0.02    C261.57,315.49,261.61,315.48,261.65,315.47z"/><linearGradient gradientUnits="userSpaceOnUse" id="SVGID_27_" x1="261.67" x2="261.7776" y1="315.4442" y2="315.4442"><stop offset="0" style="stop-color:#0071BC"/><stop offset="0.0467" style="stop-color:#0477C0"/><stop offset="0.3164" style="stop-color:#1893D2"/><stop offset="0.4727" style="stop-color:#1F9DD9"/><stop offset="0.6039" style="stop-color:#19B1E1"/><stop offset="0.8709" style="stop-color:#09E4F5"/><stop offset="1" style="stop-color:#00FFFF"/></linearGradient><path class="st26" d="M261.78,315.43c-0.01,0-0.03,0.01-0.04,0.01c-0.01,0-0.03,0.01-0.04,0.01c0,0,0,0,0,0    c-0.01,0-0.01,0-0.02,0.01C261.71,315.45,261.74,315.44,261.78,315.43z"/><linearGradient gradientUnits="userSpaceOnUse" id="SVGID_28_" x1="251.3779" x2="251.6923" y1="319.1669" y2="319.1669"><stop offset="0" style="stop-color:#0071BC"/><stop offset="0.0467" style="stop-color:#0477C0"/><stop offset="0.3164" style="stop-color:#1893D2"/><stop offset="0.4727" style="stop-color:#1F9DD9"/><stop offset="0.6039" style="stop-color:#19B1E1"/><stop offset="0.8709" style="stop-color:#09E4F5"/><stop offset="1" style="stop-color:#00FFFF"/></linearGradient><path class="st27" d="M251.38,319.18l0.31-0.02h0C251.59,319.16,251.48,319.17,251.38,319.18z"/><linearGradient gradientUnits="userSpaceOnUse" id="SVGID_29_" x1="251.3779" x2="251.6918" y1="319.1562" y2="319.1562"><stop offset="0" style="stop-color:#0071BC"/><stop offset="0.0467" style="stop-color:#0477C0"/><stop offset="0.3164" style="stop-color:#1893D2"/><stop offset="0.4727" style="stop-color:#1F9DD9"/><stop offset="0.6039" style="stop-color:#19B1E1"/><stop offset="0.8709" style="stop-color:#09E4F5"/><stop offset="1" style="stop-color:#00FFFF"/></linearGradient><path class="st28" d="M251.38,319.18c0.1-0.01,0.21-0.02,0.31-0.02C251.58,319.13,251.46,319.11,251.38,319.18z"/><linearGradient gradientUnits="userSpaceOnUse" id="SVGID_30_" x1="233.6762" x2="234.0644" y1="230.5488" y2="230.5488"><stop offset="0" style="stop-color:#0071BC"/><stop offset="0.0467" style="stop-color:#0477C0"/><stop offset="0.3164" style="stop-color:#1893D2"/><stop offset="0.4727" style="stop-color:#1F9DD9"/><stop offset="0.6039" style="stop-color:#19B1E1"/><stop offset="0.8709" style="stop-color:#09E4F5"/><stop offset="1" style="stop-color:#00FFFF"/></linearGradient><path class="st29" d="M233.79,230.68c-0.04-0.04-0.08-0.08-0.11-0.11c0.12-0.09,0.27-0.25,0.38-0.07    C234.11,230.6,233.92,230.67,233.79,230.68z"/><linearGradient gradientUnits="userSpaceOnUse" id="SVGID_31_" x1="263.5442" x2="263.8765" y1="230.5695" y2="230.5695"><stop offset="0" style="stop-color:#0071BC"/><stop offset="0.0467" style="stop-color:#0477C0"/><stop offset="0.3164" style="stop-color:#1893D2"/><stop offset="0.4727" style="stop-color:#1F9DD9"/><stop offset="0.6039" style="stop-color:#19B1E1"/><stop offset="0.8709" style="stop-color:#09E4F5"/><stop offset="1" style="stop-color:#00FFFF"/></linearGradient><path class="st30" d="M263.88,230.57c-0.03,0.04-0.07,0.08-0.1,0.11c-0.09-0.03-0.29,0-0.21-0.17c0.03-0.07,0.11-0.06,0.19-0.03    c0.01,0.01,0.02,0.01,0.03,0.02c0.01,0,0.02,0.01,0.02,0.01C263.83,230.53,263.86,230.55,263.88,230.57z"/><linearGradient gradientUnits="userSpaceOnUse" id="SVGID_32_" x1="263.787" x2="263.877" y1="230.5332" y2="230.5332"><stop offset="0" style="stop-color:#0071BC"/><stop offset="0.0467" style="stop-color:#0477C0"/><stop offset="0.3164" style="stop-color:#1893D2"/><stop offset="0.4727" style="stop-color:#1F9DD9"/><stop offset="0.6039" style="stop-color:#19B1E1"/><stop offset="0.8709" style="stop-color:#09E4F5"/><stop offset="1" style="stop-color:#00FFFF"/></linearGradient><path class="st31" d="M263.88,230.56c-0.01-0.01-0.03-0.02-0.04-0.03c0,0,0,0-0.01-0.01c-0.01-0.01-0.03-0.02-0.04-0.03    C263.82,230.52,263.85,230.54,263.88,230.56C263.88,230.57,263.88,230.57,263.88,230.56z"/><linearGradient gradientUnits="userSpaceOnUse" id="SVGID_33_" x1="255.5184" x2="256.194" y1="316.8056" y2="316.8056"><stop offset="0" style="stop-color:#0071BC"/><stop offset="0.0467" style="stop-color:#0477C0"/><stop offset="0.3164" style="stop-color:#1893D2"/><stop offset="0.4727" style="stop-color:#1F9DD9"/><stop offset="0.6039" style="stop-color:#19B1E1"/><stop offset="0.8709" style="stop-color:#09E4F5"/><stop offset="1" style="stop-color:#00FFFF"/></linearGradient><path class="st32" d="M255.64,316.84c-0.04,0.01-0.07,0.01-0.11,0.02c-0.01,0-0.01,0-0.02,0c0.01,0,0.01,0,0.02,0    C255.57,316.85,255.61,316.85,255.64,316.84c0.17-0.03,0.33-0.05,0.5-0.08c0.02,0,0.03-0.01,0.05-0.01    c-0.02,0-0.03,0.01-0.05,0.01C255.98,316.79,255.81,316.81,255.64,316.84z"/><linearGradient gradientUnits="userSpaceOnUse" id="SVGID_34_" x1="202.033" x2="295.2769" y1="272.6714" y2="272.6714"><stop offset="0" style="stop-color:#0071BC"/><stop offset="0.0467" style="stop-color:#0477C0"/><stop offset="0.3164" style="stop-color:#1893D2"/><stop offset="0.4727" style="stop-color:#1F9DD9"/><stop offset="0.6039" style="stop-color:#19B1E1"/><stop offset="0.8709" style="stop-color:#09E4F5"/><stop offset="1" style="stop-color:#00FFFF"/></linearGradient><path class="st33" d="M281.99,239.65c-6.67-6.74-15.54-11.1-24.83-12.8c-9.78-1.78-20.17-0.64-29.12,3.78    c-8.83,4.36-15.97,11.76-20.5,20.46c-4.53,8.71-6.51,18.82-5.01,28.57c1.42,9.23,5.88,17.82,12.26,24.63    c7,7.47,16.32,12.79,26.43,14.44c3.36,0.55,6.77,0.69,10.15,0.45c0.08-0.06,0.2-0.05,0.31-0.02h0c5.66-0.44,11.23-1.94,16.41-4.32    c4.77-2.2,9.2-5.15,13.03-8.74c3.72-3.48,6.87-7.55,9.21-12.1C299.31,276.59,295.78,253.57,281.99,239.65z M289.37,253.85    c1.79,3.93,3.02,8.01,3.63,12.29c0.24,1.69,0.37,3.39,0.44,5.1c0.03,0.74-0.22,0.91-0.91,0.89c-1.54-0.05-3.09-0.01-4.63-0.01    c-1.58,0-3.15-0.02-4.73,0.01c-0.62,0.01-0.87-0.13-0.89-0.82c-0.15-4.87-0.56-9.7-1.74-14.45c-0.16-0.64,0-0.94,0.68-1.13    c2.36-0.63,4.68-1.41,6.94-2.35C288.83,253.11,289.09,253.22,289.37,253.85z M270.6,235.27c1.22-0.66,2.11-0.5,3.24,0.29    c5.73,4,10.37,8.98,13.84,15.04c0.18,0.32,0.46,0.61-0.14,0.84c-2.34,0.91-4.72,1.69-7.13,2.39c-0.06,0.02-0.13,0.02-0.27,0.05    c-0.5,0.06-0.47-0.45-0.56-0.75c-0.81-2.73-1.88-5.37-3.17-7.91c-1.62-3.18-3.61-6.12-6.04-8.73    C269.81,235.9,269.82,235.69,270.6,235.27z M276.54,291.9c-2.63-0.67-5.28-1.23-7.96-1.65c-0.74-0.12-1.22-0.56-1.8-0.96    c-2.03-1.42-2.32-3.22-1.91-5.56c0.49-2.79,0.58-5.67,0.55-8.52c-0.01-0.83,0.26-1.07,1.1-1.06c4.29,0.04,8.58,0.03,12.88,0    c0.68,0,1,0.14,0.88,0.89c-0.09,0.56-0.07,1.14-0.1,1.71c-0.21,4.87-0.96,9.65-2.33,14.34    C277.64,291.81,277.35,292.11,276.54,291.9z M276.66,294.46c-0.44,1.04-0.9,2.07-1.31,3.01c-1.63-1.6-3.21-3.16-4.92-4.83    c2.07,0.45,4.02,0.88,5.97,1.3C276.73,294.01,276.76,294.22,276.66,294.46z M262.65,272.12c-2.01-0.03-4.03-0.01-6.04-0.01v0    c-1.95,0-3.89-0.03-5.84,0.01c-0.73,0.02-1-0.17-0.99-0.95c0.04-3.25,0.05-6.51,0-9.76c-0.01-0.86,0.3-1.09,1.1-1.1    c3.72-0.06,7.43-0.31,11.13-0.81c0.65-0.09,0.88,0.11,0.94,0.77c0.32,3.68,0.5,7.36,0.5,11.05    C263.45,271.94,263.27,272.13,262.65,272.12z M263.41,274.82c-0.09,3.38-0.33,6.74-0.68,10.02c-3.58-3.56-7.13-7.09-10.74-10.68    h2.77c2.62,0,5.23,0.01,7.85,0C263.1,274.15,263.43,274.16,263.41,274.82z M249.8,249.02L249.8,249.02    c0.01-2.79,0.02-5.57-0.01-8.36c-0.01-0.68,0.17-0.93,0.89-0.94c1.98-0.03,3.95-0.24,5.9-0.57c0.81-0.14,1.24,0.06,1.57,0.88    c2.22,5.4,3.51,11.03,4.38,16.77c0.07,0.48-0.06,0.63-0.55,0.68c-3.77,0.42-7.54,0.72-11.34,0.83c-0.67,0.02-0.86-0.18-0.86-0.84    C249.82,254.66,249.8,251.84,249.8,249.02z M262.68,247.14c-0.69-2.63-1.53-5.2-2.59-7.7c-0.25-0.6-0.25-0.84,0.5-0.99    c2.17-0.42,4.3-0.99,6.38-1.74c0.42-0.15,0.69-0.13,1.04,0.23c4.69,4.81,7.68,10.59,9.63,16.96c0.1,0.32,0.22,0.63-0.31,0.76    c-4.03,1.02-8.1,1.8-12.29,2.41c-0.52,0.12-0.47-0.34-0.52-0.68C264.06,253.27,263.48,250.18,262.68,247.14z M278.58,257.36    c1.08,4.66,1.5,9.39,1.68,14.15c0.02,0.66-0.35,0.6-0.76,0.6c-2.21,0-4.43,0-6.64,0c-2.15,0-4.29-0.01-6.44,0.01    c-0.59,0.01-0.9-0.08-0.91-0.81c-0.03-3.72-0.15-7.44-0.53-11.15c-0.07-0.72,0.04-1.02,0.88-1.14c3.91-0.54,7.79-1.28,11.62-2.27    C278.09,256.6,278.39,256.58,278.58,257.36z M263.56,230.51c0.03-0.07,0.11-0.06,0.19-0.03c0.01,0.01,0.02,0.01,0.03,0.02    c0.01,0,0.02,0.01,0.02,0.01c0.01,0,0.01,0.01,0.02,0.01c0,0,0,0,0,0c0,0,0,0,0.01,0.01c0,0,0,0,0,0c0,0,0.01,0.01,0.01,0.01    c0.01,0.01,0.01,0.01,0.02,0.02c0,0,0,0,0,0c1.21,0.29,2.33,0.84,3.46,1.35c0.88,0.39,1.72,0.84,2.63,1.29    c-1.58,1.09-1.67,1.06-3.03-0.06c-1.03-0.85-2.11-1.65-3.16-2.47C263.68,230.65,263.48,230.68,263.56,230.51z M265.62,234.74    c-0.07,0.45-0.42,0.39-0.64,0.45c-1.82,0.58-3.67,1.02-5.53,1.41c-0.38,0.08-0.62,0.08-0.81-0.31c-1.4-2.87-3.19-5.49-5.24-7.94    C258.01,229.52,262.04,231.72,265.62,234.74z M249.77,227.91c3.14,2.64,5.18,5.71,6.95,9.12c-2.17,0.41-4.29,0.53-6.4,0.68    c-0.29,0.02-0.55-0.02-0.55-0.4C249.77,234.26,249.77,231.22,249.77,227.91z M247.72,249.16L247.72,249.16    c0,2.79-0.01,5.57,0.01,8.36c0.01,0.63-0.16,0.88-0.84,0.87c-3.49-0.03-6.98-0.12-10.46-0.37c-1.41-0.1-1.51-0.28-1.28-1.89    c0.75-5.33,2-10.53,4.03-15.52c0.62-1.52,0.23-1.38,1.99-1.15c1.86,0.25,3.74,0.34,5.62,0.34c0.75,0,0.96,0.24,0.95,0.99    C247.69,243.58,247.72,246.37,247.72,249.16z M247.72,269.83c-3.22-3.22-6.39-6.4-9.42-9.43c1.46,0,3.15-0.01,4.85,0    c1.28,0.01,2.55,0.06,3.83,0.04c0.56-0.01,0.76,0.16,0.76,0.74C247.71,264.07,247.72,266.95,247.72,269.83z M233.1,255.66    c-2.01-2.04-3.83-3.91-5.66-5.76c-1.23-1.24-2.45-2.49-3.71-3.69c-0.43-0.4-0.44-0.71-0.16-1.2c1.58-2.78,3.39-5.39,5.6-7.71    c0.43-0.45,0.77-0.59,1.37-0.36c2.06,0.81,4.2,1.36,6.36,1.82c0.37,0.08,0.8,0.07,0.52,0.73    C235.28,244.58,234.03,249.91,233.1,255.66z M247.72,227.93c0,3.27,0,6.28,0,9.29c0,0.38-0.15,0.53-0.54,0.52    c-1.98-0.01-3.96-0.09-5.92-0.38c-0.39-0.06-0.56-0.15-0.34-0.56C242.66,233.56,244.67,230.53,247.72,227.93z M238.85,236.39    c-0.18,0.36-0.36,0.61-0.83,0.5c-2.15-0.48-4.3-0.95-6.51-1.81c3.78-3.24,7.92-5.52,12.65-6.74    C242.04,230.82,240.29,233.5,238.85,236.39z M233.68,230.57c0.12-0.09,0.27-0.25,0.38-0.07c0.06,0.11-0.14,0.17-0.27,0.18    c-1.38,1.12-2.86,2.09-4.15,3.32c-0.37,0.36-0.67,0.11-1-0.04c-0.39-0.18-0.78-0.37-1.31-0.62    C229.46,232.21,231.49,231.21,233.68,230.57z M218.31,239.9c2.01-1.88,4.18-3.56,6.5-5.05c0.33-0.21,0.6-0.21,0.92-0.04    c0.61,0.34,1.24,0.65,1.94,1.02c-1.39,1.62-2.8,3.19-3.94,4.97c-0.58,0.9-1.15,1.81-1.7,2.73c-0.23,0.39-0.41,0.58-0.81,0.17    c-0.98-1.01-1.98-2-2.99-2.99C217.91,240.39,218.02,240.18,218.31,239.9z M278.99,305.65c-3.86,3.45-8.06,6.16-12.6,8.1    c-1.51,0.65-3.06,1.21-4.65,1.69c-0.01,0-0.03,0.01-0.04,0.01c0,0,0,0,0,0c-0.01,0-0.01,0-0.02,0.01c-0.01,0-0.02,0.01-0.04,0.01    c-0.01,0-0.01,0-0.02,0.01c0,0-0.01,0-0.01,0c-0.03,0.01-0.05,0.02-0.08,0.02c0,0-0.01,0-0.01,0c0,0,0,0-0.01,0c0,0,0,0-0.01,0    c-0.03,0.01-0.07,0.02-0.1,0.03c-0.06,0.02-0.12,0.04-0.18,0.05c-0.02,0.01-0.04,0.01-0.06,0.02c-0.02,0.01-0.04,0.01-0.06,0.02    c-0.01,0-0.02,0-0.02,0.01c-0.01,0-0.03,0.01-0.04,0.01c-0.02,0.01-0.05,0.01-0.07,0.02c-0.07,0.02-0.15,0.04-0.22,0.06    c-0.02,0-0.03,0.01-0.05,0.01c-0.07,0.02-0.14,0.04-0.21,0.06c-0.07,0.02-0.13,0.04-0.2,0.05c-0.04,0.01-0.08,0.02-0.12,0.03    c-0.07,0.02-0.14,0.04-0.21,0.06c-0.12,0.03-0.23,0.06-0.35,0.09c-0.05,0.01-0.11,0.03-0.16,0.04c0,0-0.01,0-0.01,0    c-0.01,0-0.02,0-0.03,0.01c-0.14,0.03-0.28,0.07-0.42,0.1c-0.02,0-0.04,0.01-0.06,0.01c-0.02,0-0.03,0.01-0.05,0.01    c-0.13,0.03-0.26,0.06-0.39,0.09c-0.03,0.01-0.06,0.01-0.09,0.02c-0.01,0-0.03,0.01-0.04,0.01c-0.09,0.02-0.17,0.04-0.26,0.06    c-0.07,0.01-0.14,0.03-0.21,0.04c-0.01,0-0.01,0-0.02,0c-0.03,0.01-0.06,0.01-0.09,0.02c-0.14,0.03-0.28,0.06-0.42,0.08    c-0.03,0.01-0.07,0.01-0.1,0.02c-0.16,0.03-0.32,0.06-0.48,0.09c-0.01,0-0.03,0.01-0.04,0.01c-0.02,0-0.04,0.01-0.06,0.01    c-0.15,0.03-0.29,0.05-0.44,0.08c0,0-0.01,0-0.01,0s-0.01,0-0.01,0c-0.02,0-0.03,0.01-0.05,0.01c-0.17,0.03-0.33,0.05-0.5,0.08    c-0.04,0.01-0.07,0.01-0.11,0.02c-0.01,0-0.01,0-0.02,0c0,0-0.01,0-0.01,0c-0.04,0.01-0.08,0.01-0.12,0.02    c-0.03,0-0.05,0.01-0.08,0.01c-0.35,0.05-0.71,0.1-1.06,0.15c-1.79,0.24-3.6,0.35-5.4,0.34c-0.06,0-0.13,0-0.19,0    c-24.71,0-44.74-20.03-44.74-44.74c0-12.03,4.74-22.94,12.47-30.98l0.18,0.18c0.12,0.03,0.25,0.12,0.41,0.28    c6.98,7.01,13.97,14,20.97,20.99c1.08,1.08,2.16,2.16,3.24,3.24c0.04,0.04,0.07,0.09,0.13,0.18l6.04,6.03    c0.25,0.22,0.49,0.45,0.72,0.69c7.41,7.4,14.82,14.82,22.23,22.22l5.84,5.83c0.95,0.95,1.9,1.89,2.85,2.84    C279.59,304.75,279.68,305.02,278.99,305.65z M286.11,297.15c-1.41,2.13-2.99,4.12-4.73,5.98c-0.29,0.31-0.46,0.25-0.72-0.02    c-1.15-1.17-2.31-2.34-3.48-3.49c-0.29-0.29-0.28-0.53-0.12-0.89c0.54-1.19,1.05-2.39,1.56-3.59c0.14-0.32,0.24-0.67,0.72-0.53    c2.21,0.65,4.42,1.3,6.64,1.94C286.39,296.69,286.28,296.89,286.11,297.15z M293.41,275.11c-0.37,5.36-1.53,10.53-3.73,15.45    c-0.57,1.28-1.27,2.51-1.88,3.78c-0.21,0.45-0.46,0.53-0.93,0.39c-2.18-0.66-4.36-1.32-6.55-1.91c-0.61-0.17-0.74-0.42-0.56-0.98    c1.71-5.52,2.43-11.19,2.54-16.94c0.01-0.67,0.28-0.76,0.84-0.75c1.58,0.03,3.15,0.01,4.73,0.01c1.54,0,3.09,0.04,4.63-0.02    C293.29,274.11,293.46,274.37,293.41,275.11z"/><linearGradient gradientUnits="userSpaceOnUse" id="SVGID_35_" x1="256.2129" x2="256.7174" y1="316.7033" y2="316.7033"><stop offset="0" style="stop-color:#0071BC"/><stop offset="0.0467" style="stop-color:#0477C0"/><stop offset="0.3164" style="stop-color:#1893D2"/><stop offset="0.4727" style="stop-color:#1F9DD9"/><stop offset="0.6039" style="stop-color:#19B1E1"/><stop offset="0.8709" style="stop-color:#09E4F5"/><stop offset="1" style="stop-color:#00FFFF"/></linearGradient><path class="st34" d="M256.21,316.75c0.15-0.02,0.29-0.05,0.44-0.08c0.02,0,0.04-0.01,0.06-0.01c-0.02,0-0.04,0.01-0.06,0.01    C256.51,316.7,256.36,316.72,256.21,316.75z"/><linearGradient gradientUnits="userSpaceOnUse" id="SVGID_36_" x1="261.6157" x2="261.67" y1="315.4691" y2="315.4691"><stop offset="0" style="stop-color:#0071BC"/><stop offset="0.0467" style="stop-color:#0477C0"/><stop offset="0.3164" style="stop-color:#1893D2"/><stop offset="0.4727" style="stop-color:#1F9DD9"/><stop offset="0.6039" style="stop-color:#19B1E1"/><stop offset="0.8709" style="stop-color:#09E4F5"/><stop offset="1" style="stop-color:#00FFFF"/></linearGradient><path class="st35" d="M261.67,315.46c-0.02,0.01-0.04,0.01-0.05,0.02c0.01,0,0.02-0.01,0.03-0.01    C261.66,315.46,261.66,315.46,261.67,315.46z"/><linearGradient gradientUnits="userSpaceOnUse" id="SVGID_37_" x1="260.2714" x2="260.7369" y1="315.7962" y2="315.7962"><stop offset="0" style="stop-color:#0071BC"/><stop offset="0.0467" style="stop-color:#0477C0"/><stop offset="0.3164" style="stop-color:#1893D2"/><stop offset="0.4727" style="stop-color:#1F9DD9"/><stop offset="0.6039" style="stop-color:#19B1E1"/><stop offset="0.8709" style="stop-color:#09E4F5"/><stop offset="1" style="stop-color:#00FFFF"/></linearGradient><path class="st36" d="M260.47,315.81c-0.07,0.02-0.13,0.04-0.2,0.05C260.34,315.84,260.41,315.82,260.47,315.81    c0.07-0.02,0.14-0.04,0.21-0.06c0.02,0,0.03-0.01,0.05-0.01c-0.02,0-0.03,0.01-0.05,0.01    C260.61,315.77,260.54,315.79,260.47,315.81z"/><linearGradient gradientUnits="userSpaceOnUse" id="SVGID_38_" x1="257.848" x2="258.08" y1="316.4132" y2="316.4132"><stop offset="0" style="stop-color:#0071BC"/><stop offset="0.0467" style="stop-color:#0477C0"/><stop offset="0.3164" style="stop-color:#1893D2"/><stop offset="0.4727" style="stop-color:#1F9DD9"/><stop offset="0.6039" style="stop-color:#19B1E1"/><stop offset="0.8709" style="stop-color:#09E4F5"/><stop offset="1" style="stop-color:#00FFFF"/></linearGradient><path class="st37" d="M257.85,316.44c0.01,0,0.02,0,0.02,0c0.07-0.01,0.14-0.03,0.21-0.05c-0.07,0.01-0.14,0.03-0.21,0.05    C257.86,316.43,257.86,316.44,257.85,316.44z"/><linearGradient gradientUnits="userSpaceOnUse" id="SVGID_39_" x1="258.3781" x2="258.9059" y1="316.2636" y2="316.2636"><stop offset="0" style="stop-color:#0071BC"/><stop offset="0.0467" style="stop-color:#0477C0"/><stop offset="0.3164" style="stop-color:#1893D2"/><stop offset="0.4727" style="stop-color:#1F9DD9"/><stop offset="0.6039" style="stop-color:#19B1E1"/><stop offset="0.8709" style="stop-color:#09E4F5"/><stop offset="1" style="stop-color:#00FFFF"/></linearGradient><path class="st38" d="M258.47,316.3c-0.03,0.01-0.06,0.01-0.09,0.02C258.41,316.32,258.44,316.31,258.47,316.3    c0.13-0.03,0.26-0.06,0.39-0.09c0.02,0,0.03-0.01,0.05-0.01c-0.02,0-0.03,0.01-0.05,0.01C258.73,316.24,258.6,316.27,258.47,316.3    z"/><linearGradient gradientUnits="userSpaceOnUse" id="SVGID_40_" x1="259.3882" x2="259.4247" y1="316.083" y2="316.083"><stop offset="0" style="stop-color:#0071BC"/><stop offset="0.0467" style="stop-color:#0477C0"/><stop offset="0.3164" style="stop-color:#1893D2"/><stop offset="0.4727" style="stop-color:#1F9DD9"/><stop offset="0.6039" style="stop-color:#19B1E1"/><stop offset="0.8709" style="stop-color:#09E4F5"/><stop offset="1" style="stop-color:#00FFFF"/></linearGradient><path class="st39" d="M259.39,316.09c0.01,0,0.02,0,0.03-0.01c0,0,0.01,0,0.01,0c0,0-0.01,0-0.01,0    C259.41,316.08,259.4,316.09,259.39,316.09z"/><linearGradient gradientUnits="userSpaceOnUse" id="SVGID_41_" x1="261.5089" x2="261.6016" y1="315.4954" y2="315.4954"><stop offset="0" style="stop-color:#0071BC"/><stop offset="0.0467" style="stop-color:#0477C0"/><stop offset="0.3164" style="stop-color:#1893D2"/><stop offset="0.4727" style="stop-color:#1F9DD9"/><stop offset="0.6039" style="stop-color:#19B1E1"/><stop offset="0.8709" style="stop-color:#09E4F5"/><stop offset="1" style="stop-color:#00FFFF"/></linearGradient><path class="st40" d="M261.51,315.51c0.03-0.01,0.06-0.02,0.09-0.03c-0.03,0.01-0.05,0.02-0.08,0.02    C261.52,315.51,261.51,315.51,261.51,315.51z"/><linearGradient gradientUnits="userSpaceOnUse" id="SVGID_42_" x1="263.8308" x2="263.8381" y1="230.5311" y2="230.5311"><stop offset="0" style="stop-color:#0071BC"/><stop offset="0.0467" style="stop-color:#0477C0"/><stop offset="0.3164" style="stop-color:#1893D2"/><stop offset="0.4727" style="stop-color:#1F9DD9"/><stop offset="0.6039" style="stop-color:#19B1E1"/><stop offset="0.8709" style="stop-color:#09E4F5"/><stop offset="1" style="stop-color:#00FFFF"/></linearGradient><path class="st41" d="M263.83,230.53C263.83,230.53,263.84,230.53,263.83,230.53C263.84,230.53,263.83,230.53,263.83,230.53z"/><linearGradient gradientUnits="userSpaceOnUse" id="SVGID_43_" x1="261.0665" x2="261.1488" y1="315.6272" y2="315.6272"><stop offset="0" style="stop-color:#0071BC"/><stop offset="0.0467" style="stop-color:#0477C0"/><stop offset="0.3164" style="stop-color:#1893D2"/><stop offset="0.4727" style="stop-color:#1F9DD9"/><stop offset="0.6039" style="stop-color:#19B1E1"/><stop offset="0.8709" style="stop-color:#09E4F5"/><stop offset="1" style="stop-color:#00FFFF"/></linearGradient><path class="st42" d="M261.15,315.62c-0.02,0.01-0.04,0.01-0.06,0.02c-0.01,0-0.02,0-0.02,0.01    C261.09,315.63,261.12,315.62,261.15,315.62z"/><linearGradient gradientUnits="userSpaceOnUse" id="SVGID_44_" x1="261.026" x2="261.0909" y1="315.6414" y2="315.6414"><stop offset="0" style="stop-color:#0071BC"/><stop offset="0.0467" style="stop-color:#0477C0"/><stop offset="0.3164" style="stop-color:#1893D2"/><stop offset="0.4727" style="stop-color:#1F9DD9"/><stop offset="0.6039" style="stop-color:#19B1E1"/><stop offset="0.8709" style="stop-color:#09E4F5"/><stop offset="1" style="stop-color:#00FFFF"/></linearGradient><path class="st43" d="M261.03,315.65c0.02-0.01,0.04-0.01,0.06-0.02c-0.01,0-0.02,0-0.02,0.01    C261.05,315.64,261.04,315.65,261.03,315.65z"/><linearGradient gradientUnits="userSpaceOnUse" id="SVGID_45_" x1="255.1176" x2="255.4767" y1="316.8931" y2="316.8931"><stop offset="0" style="stop-color:#0071BC"/><stop offset="0.0467" style="stop-color:#0477C0"/><stop offset="0.3164" style="stop-color:#1893D2"/><stop offset="0.4727" style="stop-color:#1F9DD9"/><stop offset="0.6039" style="stop-color:#19B1E1"/><stop offset="0.8709" style="stop-color:#09E4F5"/><stop offset="1" style="stop-color:#00FFFF"/></linearGradient><path class="st44" d="M255.48,316.87c-0.03,0-0.06,0.01-0.09,0.01c-0.03,0-0.05,0.01-0.08,0.01c-0.06,0.01-0.13,0.02-0.19,0.03    C255.24,316.9,255.36,316.88,255.48,316.87z"/><linearGradient gradientUnits="userSpaceOnUse" id="SVGID_46_" x1="261.2067" x2="261.4962" y1="315.556" y2="315.556"><stop offset="0" style="stop-color:#0071BC"/><stop offset="0.0467" style="stop-color:#0477C0"/><stop offset="0.3164" style="stop-color:#1893D2"/><stop offset="0.4727" style="stop-color:#1F9DD9"/><stop offset="0.6039" style="stop-color:#19B1E1"/><stop offset="0.8709" style="stop-color:#09E4F5"/><stop offset="1" style="stop-color:#00FFFF"/></linearGradient><path class="st45" d="M261.5,315.51c-0.03,0.01-0.07,0.02-0.1,0.03c-0.06,0.02-0.12,0.04-0.18,0.05    C261.3,315.57,261.4,315.54,261.5,315.51z"/><linearGradient gradientUnits="userSpaceOnUse" id="SVGID_47_" x1="248.7999" x2="249.0053" y1="317.3826" y2="317.3826"><stop offset="0" style="stop-color:#0071BC"/><stop offset="0.0467" style="stop-color:#0477C0"/><stop offset="0.3164" style="stop-color:#1893D2"/><stop offset="0.4727" style="stop-color:#1F9DD9"/><stop offset="0.6039" style="stop-color:#19B1E1"/><stop offset="0.8709" style="stop-color:#09E4F5"/><stop offset="1" style="stop-color:#00FFFF"/></linearGradient><path class="st46" d="M249.01,317.38c-0.05,0-0.1,0-0.16,0c-0.02,0-0.03,0-0.05,0C248.87,317.38,248.94,317.38,249.01,317.38z"/><linearGradient gradientUnits="userSpaceOnUse" id="SVGID_48_" x1="252.7915" x2="253.8315" y1="317.141" y2="317.141"><stop offset="0" style="stop-color:#0071BC"/><stop offset="0.0467" style="stop-color:#0477C0"/><stop offset="0.3164" style="stop-color:#1893D2"/><stop offset="0.4727" style="stop-color:#1F9DD9"/><stop offset="0.6039" style="stop-color:#19B1E1"/><stop offset="0.8709" style="stop-color:#09E4F5"/><stop offset="1" style="stop-color:#00FFFF"/></linearGradient><path class="st47" d="M253.83,317.09c-0.35,0.04-0.69,0.08-1.04,0.11C253.14,317.16,253.49,317.13,253.83,317.09z"/><linearGradient gradientUnits="userSpaceOnUse" id="SVGID_49_" x1="216.5599" x2="241.3007" y1="254.1873" y2="254.1873"><stop offset="0" style="stop-color:#0071BC"/><stop offset="0.0467" style="stop-color:#0477C0"/><stop offset="0.3164" style="stop-color:#1893D2"/><stop offset="0.4727" style="stop-color:#1F9DD9"/><stop offset="0.6039" style="stop-color:#19B1E1"/><stop offset="0.8709" style="stop-color:#09E4F5"/><stop offset="1" style="stop-color:#00FFFF"/></linearGradient><path class="st48" d="M241.3,266.53l-24.74-24.69c0,0,0,0,0,0l21.38,21.27c1.08,1.08,2.16,2.16,3.24,3.24    C241.21,266.39,241.25,266.45,241.3,266.53z"/><linearGradient gradientUnits="userSpaceOnUse" id="SVGID_50_" x1="247.341" x2="270.2955" y1="284.016" y2="284.016"><stop offset="0" style="stop-color:#0071BC"/><stop offset="0.0467" style="stop-color:#0477C0"/><stop offset="0.3164" style="stop-color:#1893D2"/><stop offset="0.4727" style="stop-color:#1F9DD9"/><stop offset="0.6039" style="stop-color:#19B1E1"/><stop offset="0.8709" style="stop-color:#09E4F5"/><stop offset="1" style="stop-color:#00FFFF"/></linearGradient><path class="st49" d="M270.3,295.47l-22.95-22.91c0.25,0.22,0.49,0.45,0.72,0.69C255.48,280.65,262.88,288.07,270.3,295.47z"/><linearGradient gradientUnits="userSpaceOnUse" id="SVGID_51_" x1="255.3867" x2="255.5184" y1="316.8704" y2="316.8704"><stop offset="0" style="stop-color:#0071BC"/><stop offset="0.0467" style="stop-color:#0477C0"/><stop offset="0.3164" style="stop-color:#1893D2"/><stop offset="0.4727" style="stop-color:#1F9DD9"/><stop offset="0.6039" style="stop-color:#19B1E1"/><stop offset="0.8709" style="stop-color:#09E4F5"/><stop offset="1" style="stop-color:#00FFFF"/></linearGradient><path class="st50" d="M255.48,316.87c-0.03,0-0.06,0.01-0.09,0.01c0.04-0.01,0.09-0.01,0.13-0.02    C255.5,316.86,255.49,316.86,255.48,316.87z"/><linearGradient gradientUnits="userSpaceOnUse" id="SVGID_52_" x1="255.3867" x2="255.5348" y1="316.8692" y2="316.8692"><stop offset="0" style="stop-color:#0071BC"/><stop offset="0.0467" style="stop-color:#0477C0"/><stop offset="0.3164" style="stop-color:#1893D2"/><stop offset="0.4727" style="stop-color:#1F9DD9"/><stop offset="0.6039" style="stop-color:#19B1E1"/><stop offset="0.8709" style="stop-color:#09E4F5"/><stop offset="1" style="stop-color:#00FFFF"/></linearGradient><path class="st51" d="M255.39,316.88c0.05-0.01,0.1-0.02,0.15-0.02c-0.01,0-0.01,0-0.02,0    C255.47,316.87,255.43,316.87,255.39,316.88z"/><linearGradient gradientUnits="userSpaceOnUse" id="SVGID_53_" x1="255.4767" x2="261.0529" y1="316.2544" y2="316.2544"><stop offset="0" style="stop-color:#0071BC"/><stop offset="0.0467" style="stop-color:#0477C0"/><stop offset="0.3164" style="stop-color:#1893D2"/><stop offset="0.4727" style="stop-color:#1F9DD9"/><stop offset="0.6039" style="stop-color:#19B1E1"/><stop offset="0.8709" style="stop-color:#09E4F5"/><stop offset="1" style="stop-color:#00FFFF"/></linearGradient><path class="st52" d="M261.05,315.64c-0.03,0.01-0.06,0.02-0.09,0.03c-0.07,0.02-0.15,0.04-0.22,0.06c-0.02,0-0.03,0.01-0.05,0.01    c-0.07,0.02-0.14,0.04-0.21,0.06c-0.07,0.02-0.13,0.04-0.2,0.05c-0.04,0.01-0.08,0.02-0.12,0.03c-0.07,0.02-0.14,0.04-0.21,0.06    c-0.12,0.03-0.23,0.06-0.35,0.09c-0.05,0.01-0.11,0.03-0.16,0.04c0,0-0.01,0-0.01,0c-0.01,0-0.02,0-0.03,0.01    c-0.14,0.03-0.28,0.07-0.42,0.1c-0.02,0-0.04,0.01-0.06,0.01c-0.02,0-0.03,0.01-0.05,0.01c-0.13,0.03-0.26,0.06-0.39,0.09    c-0.03,0.01-0.06,0.01-0.09,0.02c-0.01,0-0.03,0.01-0.04,0.01c-0.09,0.02-0.17,0.04-0.26,0.06c-0.07,0.01-0.14,0.03-0.21,0.04    c-0.01,0-0.01,0-0.02,0c-0.03,0.01-0.06,0.01-0.09,0.02c-0.14,0.03-0.28,0.06-0.42,0.08c-0.03,0.01-0.07,0.01-0.1,0.02    c-0.16,0.03-0.32,0.06-0.48,0.09c-0.01,0-0.03,0.01-0.04,0.01c-0.02,0-0.04,0.01-0.06,0.01c-0.15,0.03-0.29,0.05-0.44,0.08    c0,0-0.01,0-0.01,0s-0.01,0-0.01,0c-0.02,0-0.03,0.01-0.05,0.01c-0.17,0.03-0.33,0.05-0.5,0.08c-0.04,0.01-0.07,0.01-0.11,0.02    c-0.02,0-0.04,0.01-0.06,0.01C257.39,316.57,259.24,316.16,261.05,315.64z"/><linearGradient gradientUnits="userSpaceOnUse" id="SVGID_54_" x1="258.9059" x2="259.3882" y1="316.1454" y2="316.1454"><stop offset="0" style="stop-color:#0071BC"/><stop offset="0.0467" style="stop-color:#0477C0"/><stop offset="0.3164" style="stop-color:#1893D2"/><stop offset="0.4727" style="stop-color:#1F9DD9"/><stop offset="0.6039" style="stop-color:#19B1E1"/><stop offset="0.8709" style="stop-color:#09E4F5"/><stop offset="1" style="stop-color:#00FFFF"/></linearGradient><path class="st53" d="M258.91,316.2c0.02,0,0.04-0.01,0.06-0.01c0.14-0.03,0.28-0.07,0.42-0.1c-0.14,0.03-0.28,0.07-0.42,0.1    C258.95,316.19,258.93,316.2,258.91,316.2z"/><linearGradient gradientUnits="userSpaceOnUse" id="SVGID_55_" x1="259.4247" x2="260.2714" y1="315.9692" y2="315.9692"><stop offset="0" style="stop-color:#0071BC"/><stop offset="0.0467" style="stop-color:#0477C0"/><stop offset="0.3164" style="stop-color:#1893D2"/><stop offset="0.4727" style="stop-color:#1F9DD9"/><stop offset="0.6039" style="stop-color:#19B1E1"/><stop offset="0.8709" style="stop-color:#09E4F5"/><stop offset="1" style="stop-color:#00FFFF"/></linearGradient><path class="st54" d="M259.93,315.95c-0.12,0.03-0.23,0.06-0.35,0.09c-0.05,0.01-0.11,0.03-0.16,0.04    c0.05-0.01,0.11-0.03,0.16-0.04C259.7,316.01,259.82,315.98,259.93,315.95c0.07-0.02,0.14-0.04,0.21-0.06    c0.04-0.01,0.08-0.02,0.12-0.03c-0.04,0.01-0.08,0.02-0.12,0.03C260.08,315.91,260,315.93,259.93,315.95z"/><linearGradient gradientUnits="userSpaceOnUse" id="SVGID_56_" x1="260.7369" x2="261.026" y1="315.6916" y2="315.6916"><stop offset="0" style="stop-color:#0071BC"/><stop offset="0.0467" style="stop-color:#0477C0"/><stop offset="0.3164" style="stop-color:#1893D2"/><stop offset="0.4727" style="stop-color:#1F9DD9"/><stop offset="0.6039" style="stop-color:#19B1E1"/><stop offset="0.8709" style="stop-color:#09E4F5"/><stop offset="1" style="stop-color:#00FFFF"/></linearGradient><path class="st55" d="M260.74,315.73c0.07-0.02,0.15-0.04,0.22-0.06c0.02-0.01,0.05-0.01,0.07-0.02    c-0.02,0.01-0.05,0.01-0.07,0.02C260.88,315.69,260.81,315.71,260.74,315.73z"/><linearGradient gradientUnits="userSpaceOnUse" id="SVGID_57_" x1="256.7174" x2="257.848" y1="316.5485" y2="316.5485"><stop offset="0" style="stop-color:#0071BC"/><stop offset="0.0467" style="stop-color:#0477C0"/><stop offset="0.3164" style="stop-color:#1893D2"/><stop offset="0.4727" style="stop-color:#1F9DD9"/><stop offset="0.6039" style="stop-color:#19B1E1"/><stop offset="0.8709" style="stop-color:#09E4F5"/><stop offset="1" style="stop-color:#00FFFF"/></linearGradient><path class="st56" d="M257.35,316.54c-0.03,0.01-0.07,0.01-0.1,0.02c-0.16,0.03-0.32,0.06-0.48,0.09c-0.01,0-0.03,0.01-0.04,0.01    c0.02,0,0.03-0.01,0.04-0.01c0.16-0.03,0.32-0.06,0.48-0.09C257.28,316.55,257.31,316.55,257.35,316.54    c0.14-0.03,0.28-0.06,0.42-0.08c0.03-0.01,0.06-0.01,0.09-0.02c-0.03,0.01-0.06,0.01-0.09,0.02    C257.62,316.48,257.49,316.51,257.35,316.54z"/><linearGradient gradientUnits="userSpaceOnUse" id="SVGID_58_" x1="256.194" x2="256.2129" y1="316.7494" y2="316.7494"><stop offset="0" style="stop-color:#0071BC"/><stop offset="0.0467" style="stop-color:#0477C0"/><stop offset="0.3164" style="stop-color:#1893D2"/><stop offset="0.4727" style="stop-color:#1F9DD9"/><stop offset="0.6039" style="stop-color:#19B1E1"/><stop offset="0.8709" style="stop-color:#09E4F5"/><stop offset="1" style="stop-color:#00FFFF"/></linearGradient><polygon class="st57" points="256.19,316.75 256.2,316.75 256.21,316.75 256.2,316.75   "/><linearGradient gradientUnits="userSpaceOnUse" id="SVGID_59_" x1="258.08" x2="258.3781" y1="316.356" y2="316.356"><stop offset="0" style="stop-color:#0071BC"/><stop offset="0.0467" style="stop-color:#0477C0"/><stop offset="0.3164" style="stop-color:#1893D2"/><stop offset="0.4727" style="stop-color:#1F9DD9"/><stop offset="0.6039" style="stop-color:#19B1E1"/><stop offset="0.8709" style="stop-color:#09E4F5"/><stop offset="1" style="stop-color:#00FFFF"/></linearGradient><path class="st58" d="M258.08,316.39c0.09-0.02,0.17-0.04,0.26-0.06c0.01,0,0.03-0.01,0.04-0.01c-0.01,0-0.03,0.01-0.04,0.01    C258.25,316.35,258.17,316.37,258.08,316.39z"/><linearGradient gradientUnits="userSpaceOnUse" id="SVGID_60_" x1="260.9584" x2="261.0665" y1="315.6546" y2="315.6546"><stop offset="0" style="stop-color:#0071BC"/><stop offset="0.0467" style="stop-color:#0477C0"/><stop offset="0.3164" style="stop-color:#1893D2"/><stop offset="0.4727" style="stop-color:#1F9DD9"/><stop offset="0.6039" style="stop-color:#19B1E1"/><stop offset="0.8709" style="stop-color:#09E4F5"/><stop offset="1" style="stop-color:#00FFFF"/></linearGradient><path class="st59" d="M261.07,315.64c-0.01,0-0.03,0.01-0.04,0.01c-0.02,0.01-0.05,0.01-0.07,0.02c0.03-0.01,0.06-0.02,0.09-0.03    C261.06,315.64,261.06,315.64,261.07,315.64z"/><linearGradient gradientUnits="userSpaceOnUse" id="SVGID_61_" x1="248.6552" x2="248.8479" y1="317.3833" y2="317.3833"><stop offset="0" style="stop-color:#0071BC"/><stop offset="0.0467" style="stop-color:#0477C0"/><stop offset="0.3164" style="stop-color:#1893D2"/><stop offset="0.4727" style="stop-color:#1F9DD9"/><stop offset="0.6039" style="stop-color:#19B1E1"/><stop offset="0.8709" style="stop-color:#09E4F5"/><stop offset="1" style="stop-color:#00FFFF"/></linearGradient><path class="st60" d="M248.85,317.38c-0.06,0-0.13,0-0.19,0c0.05,0,0.1,0,0.14,0C248.82,317.38,248.83,317.38,248.85,317.38z"/><linearGradient gradientUnits="userSpaceOnUse" id="SVGID_62_" x1="216.3826" x2="216.5608" y1="241.7526" y2="241.7526"><stop offset="0" style="stop-color:#0071BC"/><stop offset="0.0467" style="stop-color:#0477C0"/><stop offset="0.3164" style="stop-color:#1893D2"/><stop offset="0.4727" style="stop-color:#1F9DD9"/><stop offset="0.6039" style="stop-color:#19B1E1"/><stop offset="0.8709" style="stop-color:#09E4F5"/><stop offset="1" style="stop-color:#00FFFF"/></linearGradient><polygon class="st61" points="216.56,241.84 216.56,241.84 216.38,241.66   "/><linearGradient gradientUnits="userSpaceOnUse" id="SVGID_63_" x1="210.6372" x2="220.1634" y1="254.1873" y2="254.1873"><stop offset="0" style="stop-color:#0071BC"/><stop offset="0.0467" style="stop-color:#0477C0"/><stop offset="0.3164" style="stop-color:#1893D2"/><stop offset="0.4727" style="stop-color:#1F9DD9"/><stop offset="0.6039" style="stop-color:#19B1E1"/><stop offset="0.8709" style="stop-color:#09E4F5"/><stop offset="1" style="stop-color:#00FFFF"/></linearGradient><path class="st62" d="M220.16,254.19c0,2.63-2.13,4.76-4.76,4.76c-2.63,0-4.76-2.13-4.76-4.76c0-2.63,2.13-4.76,4.76-4.76    C218.03,249.42,220.16,251.56,220.16,254.19z"/><linearGradient gradientUnits="userSpaceOnUse" id="SVGID_64_" x1="209.8067" x2="250.1145" y1="285.9374" y2="285.9374"><stop offset="0" style="stop-color:#0071BC"/><stop offset="0.0467" style="stop-color:#0477C0"/><stop offset="0.3164" style="stop-color:#1893D2"/><stop offset="0.4727" style="stop-color:#1F9DD9"/><stop offset="0.6039" style="stop-color:#19B1E1"/><stop offset="0.8709" style="stop-color:#09E4F5"/><stop offset="1" style="stop-color:#00FFFF"/></linearGradient><path class="st63" d="M250.11,312.03c-3.38,0.05-6.77-0.33-10.06-1.15c-1.65-0.41-3.27-0.92-4.85-1.54    c-0.79-0.31-1.57-0.64-2.34-1c-0.1-0.04-0.19-0.09-0.29-0.13l-0.29-0.14l-0.57-0.28c-0.09-0.05-0.19-0.09-0.29-0.14l-0.28-0.15    l-0.56-0.3c-1.49-0.82-2.94-1.73-4.32-2.73l-0.51-0.38c-0.09-0.06-0.17-0.13-0.26-0.19l-0.25-0.2l-0.5-0.39l-0.49-0.41l-0.25-0.2    l-0.24-0.21l-0.48-0.42c-0.16-0.14-0.32-0.29-0.47-0.43c-0.16-0.14-0.32-0.29-0.47-0.44l-0.46-0.44c-0.15-0.15-0.3-0.3-0.45-0.45    c-0.3-0.3-0.59-0.61-0.89-0.92c-0.58-0.63-1.15-1.27-1.69-1.94l-0.2-0.25l-0.1-0.12l-0.1-0.13l-0.39-0.51l-0.1-0.13l-0.1-0.13    l-0.19-0.26l-0.19-0.26l-0.1-0.13l-0.09-0.13l-0.37-0.53l-0.09-0.13l-0.09-0.13l-0.18-0.27l-0.18-0.27l-0.09-0.13l-0.09-0.14    l-0.34-0.54c-3.62-5.83-5.72-12.63-6.01-19.54l-0.02-0.65c-0.01-0.22-0.01-0.43-0.01-0.65c-0.01-0.43,0-0.87,0.01-1.3    c0.03-0.86,0.06-1.73,0.14-2.59c0.15-1.73,0.42-3.44,0.79-5.14c0.04-0.21,0.1-0.42,0.15-0.63c0.05-0.21,0.1-0.42,0.15-0.63    l0.17-0.63c0.03-0.1,0.05-0.21,0.09-0.31l0.09-0.31l0.18-0.63l0.12-0.39c0.65,0.42,1.37,0.74,2.14,0.92l-0.06,0.18l-0.19,0.58    l-0.1,0.29c-0.03,0.1-0.06,0.2-0.09,0.29l-0.18,0.59c-0.06,0.2-0.11,0.4-0.16,0.59c-0.05,0.2-0.11,0.39-0.16,0.59    c-0.4,1.59-0.71,3.21-0.9,4.84c-0.1,0.82-0.16,1.64-0.21,2.46c-0.02,0.41-0.04,0.82-0.05,1.23c0,0.21-0.01,0.41-0.01,0.62l0,0.62    c0.06,6.59,1.86,13.19,5.19,18.94l0.32,0.54l0.08,0.13l0.08,0.13l0.16,0.26l0.16,0.26l0.08,0.13l0.09,0.13l0.34,0.52l0.09,0.13    l0.09,0.13l0.18,0.26l0.18,0.26l0.09,0.13l0.09,0.13l0.37,0.5l0.09,0.13l0.1,0.12l0.19,0.25c0.5,0.66,1.04,1.3,1.58,1.93    c0.28,0.31,0.55,0.63,0.84,0.93c0.14,0.15,0.28,0.31,0.43,0.46l0.44,0.45c0.14,0.15,0.3,0.29,0.45,0.44    c0.15,0.14,0.3,0.29,0.45,0.43l0.46,0.42l0.23,0.21l0.24,0.21l0.47,0.41l0.48,0.4l0.24,0.2c0.08,0.07,0.16,0.13,0.25,0.19    l0.49,0.39c1.32,1.02,2.71,1.96,4.16,2.81l0.55,0.31l0.27,0.16c0.09,0.05,0.18,0.1,0.28,0.15l0.55,0.3l0.28,0.15    c0.09,0.05,0.19,0.09,0.28,0.14c0.75,0.38,1.51,0.73,2.28,1.06c1.54,0.66,3.13,1.22,4.75,1.67    C243.37,311.48,246.74,311.97,250.11,312.03z"/><linearGradient gradientUnits="userSpaceOnUse" id="SVGID_65_" x1="226.4298" x2="228.5851" y1="277.7142" y2="277.7142"><stop offset="0" style="stop-color:#0071BC"/><stop offset="0.0467" style="stop-color:#0477C0"/><stop offset="0.3164" style="stop-color:#1893D2"/><stop offset="0.4727" style="stop-color:#1F9DD9"/><stop offset="0.6039" style="stop-color:#19B1E1"/><stop offset="0.8709" style="stop-color:#09E4F5"/><stop offset="1" style="stop-color:#00FFFF"/></linearGradient><path class="st64" d="M228.58,277.73c-0.01,0.6-0.5,1.07-1.09,1.06c-0.6-0.01-1.07-0.5-1.06-1.09c0.01-0.6,0.5-1.07,1.09-1.06    C228.12,276.65,228.59,277.13,228.58,277.73z"/><linearGradient gradientUnits="userSpaceOnUse" id="SVGID_66_" x1="226.1834" x2="235.1663" y1="284.946" y2="284.946"><stop offset="0" style="stop-color:#0071BC"/><stop offset="0.0467" style="stop-color:#0477C0"/><stop offset="0.3164" style="stop-color:#1893D2"/><stop offset="0.4727" style="stop-color:#1F9DD9"/><stop offset="0.6039" style="stop-color:#19B1E1"/><stop offset="0.8709" style="stop-color:#09E4F5"/><stop offset="1" style="stop-color:#00FFFF"/></linearGradient><path class="st65" d="M235.17,290.91c-0.76,0-1.53-0.1-2.27-0.29c-0.37-0.1-0.74-0.22-1.09-0.36c-0.18-0.07-0.35-0.15-0.53-0.23    c-0.02-0.01-0.04-0.02-0.07-0.03l-0.06-0.03l-0.13-0.07c-0.02-0.01-0.04-0.02-0.06-0.03l-0.06-0.03l-0.13-0.07    c-0.33-0.19-0.66-0.4-0.97-0.63l-0.12-0.09c-0.02-0.01-0.04-0.03-0.06-0.04l-0.06-0.05l-0.11-0.09l-0.11-0.09l-0.06-0.05    l-0.05-0.05l-0.11-0.1c-0.04-0.03-0.07-0.07-0.11-0.1c-0.04-0.03-0.07-0.07-0.1-0.1l-0.1-0.1c-0.03-0.03-0.07-0.07-0.1-0.1    c-0.07-0.07-0.13-0.14-0.2-0.21c-0.13-0.14-0.26-0.29-0.37-0.44l-0.07-0.09l-0.02-0.03l-0.09-0.12l-0.02-0.03l-0.02-0.03    l-0.04-0.06l-0.04-0.06l-0.02-0.03l-0.02-0.03l-0.08-0.12l-0.02-0.03l-0.02-0.03l-0.04-0.06l-0.04-0.06l-0.02-0.03l-0.02-0.03    l-0.08-0.12c-0.8-1.33-1.25-2.88-1.29-4.44l0-0.15c0-0.05,0-0.1,0-0.15c0-0.1,0-0.2,0.01-0.29c0.01-0.2,0.02-0.39,0.04-0.59    c0.04-0.39,0.11-0.78,0.2-1.16c0.01-0.05,0.02-0.1,0.04-0.14c0.01-0.05,0.02-0.1,0.04-0.14l0.04-0.14    c0.01-0.02,0.01-0.05,0.02-0.07l0.02-0.07l0.04-0.14l0.03-0.09c0.14,0.1,0.31,0.17,0.48,0.22l-0.02,0.04l-0.05,0.13l-0.02,0.07    c-0.01,0.02-0.01,0.04-0.02,0.07l-0.04,0.13c-0.01,0.04-0.03,0.09-0.04,0.13c-0.01,0.04-0.03,0.09-0.04,0.13    c-0.1,0.36-0.17,0.72-0.22,1.09c-0.03,0.18-0.04,0.37-0.06,0.56c-0.01,0.09-0.01,0.19-0.01,0.28c0,0.05,0,0.09,0,0.14l0,0.14    c-0.01,1.49,0.38,2.99,1.11,4.3l0.07,0.12l0.02,0.03l0.02,0.03l0.04,0.06l0.04,0.06l0.02,0.03l0.02,0.03l0.08,0.12l0.02,0.03    l0.02,0.03l0.04,0.06l0.04,0.06l0.02,0.03l0.02,0.03l0.08,0.12l0.02,0.03l0.02,0.03l0.04,0.06c0.11,0.15,0.23,0.3,0.35,0.44    c0.06,0.07,0.12,0.14,0.19,0.21c0.03,0.03,0.06,0.07,0.1,0.1l0.1,0.1c0.03,0.03,0.07,0.07,0.1,0.1c0.03,0.03,0.07,0.07,0.1,0.1    l0.1,0.1l0.05,0.05l0.05,0.05l0.11,0.1l0.11,0.09l0.05,0.05c0.02,0.02,0.04,0.03,0.06,0.04l0.11,0.09    c0.3,0.24,0.61,0.45,0.93,0.65l0.12,0.07l0.06,0.04c0.02,0.01,0.04,0.02,0.06,0.03l0.12,0.07l0.06,0.03    c0.02,0.01,0.04,0.02,0.06,0.03c0.17,0.09,0.34,0.17,0.51,0.25c0.35,0.15,0.7,0.29,1.07,0.39    C233.65,290.76,234.4,290.89,235.17,290.91z"/><linearGradient gradientUnits="userSpaceOnUse" id="SVGID_67_" x1="219.5121" x2="225.1464" y1="267.9455" y2="267.9455"><stop offset="0" style="stop-color:#0071BC"/><stop offset="0.0467" style="stop-color:#0477C0"/><stop offset="0.3164" style="stop-color:#1893D2"/><stop offset="0.4727" style="stop-color:#1F9DD9"/><stop offset="0.6039" style="stop-color:#19B1E1"/><stop offset="0.8709" style="stop-color:#09E4F5"/><stop offset="1" style="stop-color:#00FFFF"/></linearGradient><path class="st66" d="M225.15,267.99c-0.02,1.56-1.3,2.8-2.86,2.78c-1.56-0.02-2.8-1.3-2.78-2.86c0.02-1.56,1.3-2.8,2.86-2.78    C223.93,265.15,225.17,266.43,225.15,267.99z"/><linearGradient gradientUnits="userSpaceOnUse" id="SVGID_68_" x1="218.8677" x2="242.3674" y1="286.8529" y2="286.8529"><stop offset="0" style="stop-color:#0071BC"/><stop offset="0.0467" style="stop-color:#0477C0"/><stop offset="0.3164" style="stop-color:#1893D2"/><stop offset="0.4727" style="stop-color:#1F9DD9"/><stop offset="0.6039" style="stop-color:#19B1E1"/><stop offset="0.8709" style="stop-color:#09E4F5"/><stop offset="1" style="stop-color:#00FFFF"/></linearGradient><path class="st67" d="M242.37,302.45c-2,0-4-0.25-5.94-0.77c-0.97-0.26-1.92-0.57-2.85-0.95c-0.47-0.19-0.92-0.39-1.38-0.61    c-0.06-0.03-0.11-0.05-0.17-0.08l-0.17-0.09l-0.34-0.17c-0.06-0.03-0.11-0.06-0.17-0.09l-0.17-0.09l-0.33-0.18    c-0.88-0.5-1.72-1.05-2.53-1.65l-0.3-0.23c-0.05-0.04-0.1-0.08-0.15-0.12l-0.15-0.12l-0.29-0.24l-0.29-0.24L227,296.7l-0.14-0.13    l-0.28-0.25c-0.09-0.09-0.18-0.17-0.28-0.26c-0.09-0.09-0.19-0.17-0.27-0.26l-0.27-0.27c-0.09-0.09-0.18-0.18-0.26-0.27    c-0.18-0.18-0.35-0.37-0.52-0.55c-0.34-0.38-0.67-0.76-0.98-1.16l-0.12-0.15l-0.06-0.07l-0.06-0.08l-0.23-0.3l-0.06-0.08    l-0.06-0.08l-0.11-0.15l-0.11-0.15l-0.06-0.08l-0.05-0.08l-0.21-0.31l-0.05-0.08l-0.05-0.08l-0.1-0.16l-0.1-0.16l-0.05-0.08    l-0.05-0.08l-0.2-0.32c-2.09-3.48-3.28-7.52-3.39-11.61l-0.01-0.38c0-0.13,0-0.26,0-0.38c0-0.26,0.01-0.51,0.01-0.77    c0.02-0.51,0.05-1.02,0.11-1.53c0.1-1.02,0.28-2.03,0.51-3.03c0.03-0.13,0.06-0.25,0.09-0.37c0.03-0.12,0.06-0.25,0.1-0.37    l0.1-0.37c0.02-0.06,0.03-0.12,0.05-0.19l0.06-0.18l0.11-0.37l0.08-0.23c0.38,0.26,0.8,0.45,1.26,0.56l-0.04,0.11l-0.12,0.34    l-0.06,0.17c-0.02,0.06-0.04,0.12-0.06,0.17l-0.11,0.35c-0.04,0.12-0.07,0.23-0.1,0.35c-0.03,0.12-0.07,0.23-0.1,0.35    c-0.25,0.94-0.45,1.89-0.57,2.86c-0.07,0.48-0.11,0.97-0.15,1.45c-0.01,0.24-0.03,0.49-0.04,0.73c0,0.12-0.01,0.24-0.01,0.37    l0,0.37c-0.02,3.9,0.99,7.82,2.91,11.25l0.18,0.32l0.05,0.08l0.05,0.08l0.1,0.16l0.09,0.16l0.05,0.08l0.05,0.08l0.2,0.31    l0.05,0.08l0.05,0.08l0.1,0.15l0.1,0.15l0.05,0.08l0.05,0.08l0.21,0.3l0.05,0.08l0.05,0.07l0.11,0.15c0.29,0.4,0.6,0.78,0.92,1.16    c0.16,0.19,0.32,0.37,0.49,0.56c0.08,0.09,0.17,0.18,0.25,0.27l0.26,0.27c0.08,0.09,0.17,0.18,0.26,0.26    c0.09,0.09,0.17,0.18,0.26,0.26l0.27,0.25l0.13,0.13l0.14,0.12l0.28,0.25l0.28,0.24l0.14,0.12c0.05,0.04,0.1,0.08,0.14,0.12    l0.29,0.23c0.77,0.62,1.59,1.18,2.43,1.7l0.32,0.19l0.16,0.09c0.05,0.03,0.11,0.06,0.16,0.09l0.33,0.18l0.16,0.09    c0.05,0.03,0.11,0.06,0.17,0.09c0.44,0.23,0.89,0.45,1.34,0.65c0.91,0.4,1.84,0.75,2.79,1.03    C238.39,302.07,240.37,302.39,242.37,302.45z"/></g></g></svg>